<?xml version="1.0" encoding="utf-8"?>
<svg version="1.1" id="Layer_1" xmlns="http://www.w3.org/2000/svg" xmlns:xlink="http://www.w3.org/1999/xlink" x="0px" y="0px"
	 width="72px" height="40px" viewBox="0 0 135 50.6"
          style="enable-background: new 0 0 135 50.6" xml:space="preserve">
<style type="text/css">
	.st0{fill:none;stroke:#1782D9;stroke-width:2;stroke-miterlimit:10;}
	.st1{fill:none;stroke:#DB895E;stroke-width:2;stroke-miterlimit:10;}
	.st2{fill:none;stroke:#DB895E;stroke-width:2;stroke-linecap:round;stroke-miterlimit:10;}
</style>
<g id="Group_191">
	<path id="Path_1110" class="st1" d="M21.3,35.2c-4.5,0-9.1,0-13.6,0c-0.6,0-1.3-0.2-1.9-0.4c-0.8-0.3-1.5-0.8-2-1.5
		c-0.6-0.7-1.1-1.6-1.3-2.5c-0.1-0.6-0.2-1.1-0.1-1.7c0-6,0-12,0-18.1c0-1.2,0.5-2.4,1.3-3.4c0.7-0.9,1.7-1.6,2.8-1.9
		C7,5.6,7.5,5.5,8,5.5c5.5,0,11.1,0,16.6,0c3.4,0,6.8,0,10.2,0c1.3,0,2.5,0.4,3.5,1.2c1,0.8,1.8,2,2,3.3c0.1,0.4,0.1,0.9,0.1,1.3
		c0,6,0,12,0,18c0,1-0.2,1.9-0.6,2.8c-0.7,1.5-2.1,2.6-3.8,3c-0.5,0.1-1,0.2-1.5,0.2C30.1,35.2,25.7,35.2,21.3,35.2z"/>
	<path id="Path_1111" class="st1" d="M15.7,20.4c0-1.3,0-2.5,0-3.8c0-0.3,0.1-0.7,0.2-1c0.4-1.1,1.2-1.9,2.3-2.3
		c1.2-0.4,2.6-0.2,3.6,0.6c1.1,0.8,2.3,1.6,3.5,2.4c0.6,0.4,1.2,0.8,1.7,1.3c0.6,0.5,0.9,1.2,1.1,1.9c0.1,0.7,0.1,1.4-0.1,2
		c-0.3,0.8-0.8,1.5-1.5,2c-1.1,0.8-2.3,1.6-3.4,2.4c-0.6,0.4-1.1,0.8-1.7,1.2c-0.8,0.5-1.6,0.6-2.5,0.5c-0.7-0.1-1.4-0.5-2-1
		c-0.6-0.5-1.1-1.3-1.2-2.1c0-0.2-0.1-0.5-0.1-0.7C15.7,22.7,15.7,21.5,15.7,20.4L15.7,20.4z"/>
	<line id="Line_110" class="st2" x1="2.3" y1="40" x2="40.6" y2="40"/>
</g></svg>